<svg xmlns="http://www.w3.org/2000/svg" id="Layer_1" data-name="Layer 1" viewBox="0 0 639.43 639.2"><defs><style>      .cls-1 {        fill: #3c3996;      }      .cls-2 {        fill: #44ca7b;      }    </style></defs><rect class="cls-2" x="350.9" y="263.43" width="99.35" height="28.56" rx="10.33" ry="10.33"></rect><g><rect class="cls-1" x="100.28" y="478.46" width="66.05" height="28.56" rx="14.28" ry="14.28" transform="translate(-370.14 408.48) rotate(-65.36)"></rect><rect class="cls-1" x="174.84" y="478.46" width="66.05" height="28.56" rx="14.28" ry="14.28" transform="translate(-326.66 476.25) rotate(-65.36)"></rect><rect class="cls-1" x="249.41" y="478.46" width="66.05" height="28.56" rx="14.28" ry="14.28" transform="translate(-283.19 544.03) rotate(-65.36)"></rect><rect class="cls-1" x="323.97" y="478.46" width="66.05" height="28.56" rx="14.28" ry="14.28" transform="translate(-239.71 611.81) rotate(-65.36)"></rect><rect class="cls-1" x="398.54" y="478.46" width="66.05" height="28.56" rx="14.28" ry="14.28" transform="translate(-196.23 679.58) rotate(-65.36)"></rect><rect class="cls-1" x="473.1" y="478.46" width="66.05" height="28.56" rx="14.28" ry="14.28" transform="translate(-152.75 747.36) rotate(-65.36)"></rect></g><g><rect class="cls-1" x="100.28" y="132.19" width="66.05" height="28.56" rx="14.28" ry="14.28" transform="translate(-55.4 206.57) rotate(-65.36)"></rect><rect class="cls-1" x="174.84" y="132.19" width="66.05" height="28.56" rx="14.28" ry="14.28" transform="translate(-11.92 274.35) rotate(-65.36)"></rect><rect class="cls-1" x="249.41" y="132.19" width="66.05" height="28.56" rx="14.28" ry="14.28" transform="translate(31.55 342.12) rotate(-65.36)"></rect><rect class="cls-1" x="323.97" y="132.19" width="66.05" height="28.56" rx="14.28" ry="14.28" transform="translate(75.03 409.9) rotate(-65.36)"></rect><rect class="cls-1" x="398.54" y="132.19" width="66.05" height="28.56" rx="14.28" ry="14.28" transform="translate(118.51 477.67) rotate(-65.36)"></rect><rect class="cls-1" x="473.1" y="132.19" width="66.05" height="28.56" rx="14.28" ry="14.28" transform="translate(161.99 545.45) rotate(-65.36)"></rect></g><rect class="cls-2" x="350.9" y="312.97" width="207.51" height="28.56" rx="14.28" ry="14.28"></rect><rect class="cls-2" x="350.9" y="362.5" width="207.51" height="28.56" rx="14.28" ry="14.28"></rect><path class="cls-1" d="M507.82,503.39h-35.37c-28.55,0-57.11,0-85.66,0-35.1,0-70.19,0-105.29,0h-146.72c-1.04,0-2.08,0-3.13,0-1.18,0-2.36-.03-3.54-.08-1.61-.07-3.22-.18-4.82-.35s-.72-.04-2.85-.43c-2.87-.52-5.71-1.19-8.51-2.02-1.49-.44-2.96-.93-4.43-1.46-.55-.2-3.63-1.44-2.62-1-20.75-9.08-34.94-26.32-39.97-47.9-1.7-7.28-1.67-15.41-1.67-23.93s0-21.86,0-32.78c0-33.6,0-67.2,0-100.79s0-54.51,0-81.77c0-2.83,0-5.65,0-8.48,0-.51,0-1.01,0-1.52,0-1.19.03-2.37.08-3.56.07-1.61.18-3.22.35-4.82s.04-.72.43-2.85c4.03-22.33,17.2-40,37.23-50.17,8.83-4.49,19.82-6.96,30.29-7.03.86,0,1.72,0,2.58,0,6.13,0,12.26,0,18.39,0,25.42,0,50.84,0,76.26,0,34.45,0,68.89,0,103.34,0h99.76c21.78,0,43.56,0,65.33,0,3.5,0,7-.02,10.5,0,4.97.03,8.76.36,12.53,1.1,2.85.57,5.68,1.28,8.45,2.16,1.27.4,2.53.83,3.77,1.29,2.06.76,1.88.7,3.2,1.32,10.82,5.13,18.1,10.77,25.67,19.93.33.4.65.76,1.67,2.2.75,1.07,1.48,2.15,2.19,3.25,1.64,2.58,3.14,5.25,4.48,8,1.21,2.48,1.44,2.98,2.56,6.26,1.01,2.96,1.85,5.97,2.51,9.02,1.04,4.82,1.37,9.28,1.38,15.06.01,7.31,0,14.61,0,21.92,0,31.15,0,62.3,0,93.44s0,62.54,0,93.81c0,7.43,0,14.86,0,22.29-.02,16.08-4.22,30.68-14.65,43.96.85-1.08-1.51,1.74-1.81,2.08-.86.98-1.74,1.93-2.65,2.87-1.96,2.03-4.04,3.93-6.19,5.76-2.61,2.22-8.35,5.91-12.78,8.16-8.86,4.5-19.86,6.94-30.29,7.03-15.6.13-15.64,24.39,0,24.25,26.09-.22,51.73-11.22,69.05-30.93,15.17-17.26,23.45-39.12,23.57-62.1.11-20.15,0-40.31,0-60.46,0-35.24,0-70.47,0-105.71,0-22.07.03-44.15,0-66.22-.07-47.5-34.98-87.58-82.27-93.37-13.91-1.7-28.46-.66-42.42-.66h-193.28c-32.11,0-64.22,0-96.33,0-17.38,0-34.75,0-52.13,0-41.64,0-79.3,26-91.29,66.5-6.04,20.4-3.74,43.94-3.74,64.99,0,34.18,0,68.35,0,102.53,0,27.8,0,55.59,0,83.39,0,9.33.09,18.44,1.84,27.7,4.82,25.48,21.44,48.3,43.66,61.47,14.72,8.73,31.53,12.85,48.58,12.87,5.56,0,11.12,0,16.68,0,25.34,0,50.68,0,76.02,0,34.98,0,69.96,0,104.93,0s68.05,0,102.07,0c21.91,0,43.83,0,65.74,0h9.31c15.61,0,15.63-24.25,0-24.25Z"></path><g><path class="cls-1" d="M236.64,261.69c-.24,14.93-9.31,28.88-23.55,34.1-14.49,5.32-30.85,1.04-40.83-10.74s-11.11-28.7-3.48-41.74c7.6-12.98,22.97-20.24,37.84-17.5,17.38,3.2,29.74,18.35,30.02,35.88.14,8.87,13.94,8.9,13.8,0-.34-21.31-13.56-40.19-33.68-47.41-19.36-6.95-42.07-.56-55.09,15.3-13.39,16.3-15.47,39.85-4.46,58.02,11,18.14,32.35,27.27,53.08,23.28,23.36-4.49,39.78-25.81,40.15-49.19.14-8.88-13.66-8.89-13.8,0Z"></path><path class="cls-1" d="M251.72,410.57h-90.98c-6.27,0-14.5,1.2-20.03-2.29-9.97-6.29-7.21-21.2-7.12-31.27.15-17.55,7.53-34.01,20.64-45.7,12.31-10.98,27.63-15.13,43.8-15.13,16.08,0,30.91,2.65,44.09,12.58,15.6,11.77,24.58,30.38,24.74,49.81.05,5.41.06,10.83,0,16.24-.1,8.7-6.31,15.49-15.14,15.76-8.86.28-8.9,14.08,0,13.8,10.98-.34,21.16-6.21,26-16.27,3.32-6.9,2.94-14.16,2.94-21.58,0-18.05-2.53-35.15-12.96-50.44-11.37-16.66-29.14-28.79-49.09-32.36-15.9-2.85-34.81-2.47-49.96,3.25-18.92,7.14-34.54,21.56-42.6,40.18-6.54,15.09-6.34,30.66-6.26,46.74.09,17.05,12.42,30.33,29.73,30.49,9.03.09,18.07,0,27.1,0h75.11c8.88,0,8.89-13.8,0-13.8Z"></path></g></svg>