<svg xmlns="http://www.w3.org/2000/svg" id="Layer_1" data-name="Layer 1" viewBox="0 0 639.43 639.2"><defs><style>      .cls-1 {        fill: #3c3996;      }      .cls-2 {        fill: #44ca7b;      }    </style></defs><g><path class="cls-1" d="M146.28,376.28c-19.24-5.03-38.49-10.07-57.73-15.1l9.18,12.05V87.23l-15.82,12.05c26.53,6.73,53.05,13.46,79.58,20.2,41.92,10.64,83.85,21.28,125.77,31.92,9.72,2.47,19.43,4.93,29.15,7.4l-9.18-12.05v76.39c0,16.09,25,16.11,25,0v-76.39c0-5.4-3.87-10.71-9.18-12.05-26.53-6.73-53.05-13.46-79.58-20.2-41.92-10.64-83.85-21.28-125.77-31.92-9.72-2.47-19.43-4.93-29.15-7.4-7.85-1.99-15.82,3.8-15.82,12.05v286.01c0,5.43,3.88,10.67,9.18,12.05,19.24,5.03,38.49,10.07,57.73,15.1,15.58,4.07,22.22-20.03,6.65-24.11h0Z"></path><path class="cls-1" d="M499.8,400.39c19.24-5.03,38.49-10.07,57.73-15.1,5.3-1.39,9.18-6.62,9.18-12.05,0-32.29,0-64.57,0-96.86,0-51.37,0-102.75,0-154.12,0-11.68,0-23.35,0-35.03,0-8.25-7.98-14.04-15.82-12.05-26.53,6.73-53.05,13.46-79.58,20.2-41.92,10.64-83.85,21.28-125.77,31.92-9.72,2.47-19.43,4.93-29.15,7.4-5.31,1.35-9.18,6.65-9.18,12.05,0,25.46,0,50.93,0,76.39,0,16.09,25,16.11,25,0,0-25.46,0-50.93,0-76.39l-9.18,12.05c26.53-6.73,53.05-13.46,79.58-20.2,41.92-10.64,83.85-21.28,125.77-31.92,9.72-2.47,19.43-4.93,29.15-7.4l-15.82-12.05c0,32.29,0,64.57,0,96.86,0,51.37,0,102.75,0,154.12,0,11.68,0,23.35,0,35.03l9.18-12.05c-19.24,5.03-38.49,10.07-57.73,15.1-15.55,4.07-8.96,28.19,6.65,24.11h0Z"></path></g><path class="cls-1" d="M451.58,394.44c-.27,54.44-34.66,105.08-86.18,123.77s-112,2.81-147.73-40.18c-35.33-42.51-39.24-104.97-10.69-152.02,28.35-46.72,84.66-71.81,138.37-60.96,53.98,10.91,95.93,54.81,104.73,109.12,1.09,6.7,1.46,13.5,1.49,20.28.06,12.11,18.88,12.13,18.82,0-.31-63.03-40.24-119.91-99.37-141.69-58.65-21.59-127.37-2.9-167.08,45.3-40.35,48.97-46.3,119.81-13.22,174.32,32.79,54.04,97.05,81.97,158.96,69.74,60.47-11.94,109.47-62.74,118.76-123.75,1.21-7.94,1.91-15.9,1.95-23.93.06-12.11-18.76-12.13-18.82,0Z"></path><path class="cls-2" d="M392.99,231.1c32.56,4.34,61.35,27.88,74.15,57.8,2.01,4.71,8.89.65,6.89-4.03-14-32.73-45.78-57.05-81.04-61.75-5.08-.68-5.03,7.31,0,7.98h0Z"></path><path class="cls-2" d="M207.73,548.13c-30.66-11.84-53.22-41.34-58.68-73.47-.86-5.05-8.55-2.91-7.7,2.12,5.95,35.04,31.08,66.24,64.25,79.05,4.8,1.85,6.87-5.86,2.12-7.7h0Z"></path><path class="cls-1" d="M343.02,394.44c-.44,21.34-27.81,31.67-41.52,14.58s1.25-40.92,21.82-37.64c11.41,1.82,19.47,11.68,19.7,23.06.25,12.09,19.07,12.14,18.82,0-.37-17.74-11.11-33.34-27.8-39.58s-35.31-.98-46.27,12.18c-11.36,13.64-13.49,33.18-4.42,48.66,9,15.37,26.91,23.19,44.31,20.08,19.88-3.56,33.77-21.54,34.18-41.33.25-12.12-18.57-12.11-18.82,0Z"></path><rect class="cls-1" x="178.51" y="390.05" width="109.08" height="10.59"></rect><rect class="cls-1" x="352.43" y="390.05" width="109.08" height="10.59"></rect><rect class="cls-1" x="265.18" y="476.4" width="109.08" height="10.59" transform="translate(801.41 161.98) rotate(90)"></rect></svg>