<svg xmlns="http://www.w3.org/2000/svg" id="Layer_1" data-name="Layer 1" viewBox="0 0 639.43 639.2"><defs><style>      .cls-1 {        fill: #3c3996;      }      .cls-2 {        fill: #44ca7b;      }    </style></defs><circle class="cls-1" cx="319.72" cy="319.47" r="21.1"></circle><path class="cls-1" d="M527.25,319.71c-.14,43.54-13.74,85.86-39.07,121.3-23.95,33.51-58.57,59.78-97.31,73.75-41.09,14.82-86.25,16.51-128.27,4.53-40.44-11.53-76.48-35.5-103.31-67.83-55.57-66.98-62.08-165.11-17.09-239.32,21.82-35.99,54.43-64.58,92.71-81.96,39.05-17.73,84.18-22.52,126.14-13.9,41.38,8.5,79.37,29.48,108.61,59.96s48.51,69.72,55.2,111.52c1.69,10.56,2.35,21.27,2.38,31.95.04,12.87,20.04,12.89,20,0-.15-46.8-14.54-93.25-41.8-131.39-26.93-37.67-64.53-66.5-108.01-82.48-44.35-16.31-94.07-17.97-139.51-5.17-43.98,12.39-84.11,38.39-113.2,73.66-29.98,36.35-48.12,80.89-51.86,127.88s7.64,94.89,32.06,135.16c23.58,38.89,58.98,70.71,100.49,89.41,43.71,19.69,92.57,25.27,139.62,15.91,45.01-8.95,87.02-32.27,118.77-65.38,31.86-33.22,53.56-76.15,60.55-121.7,1.83-11.9,2.84-23.87,2.88-35.91.04-12.87-19.96-12.89-20,0Z"></path><path class="cls-1" d="M358.05,319.71c-.24,15.84-9.91,30.44-24.97,35.96-15.31,5.6-32.72.86-43.09-11.72s-11.33-29.99-3.36-43.58,24.82-21.62,40.68-18.25c17.88,3.8,30.47,19.39,30.74,37.59.14,9.33,14.66,9.36,14.52,0-.33-22.28-14.07-41.98-35.01-49.73-20.6-7.63-44.88-.77-58.66,16.23-13.88,17.14-15.97,41.73-4.47,60.73,11.49,18.99,33.7,28.56,55.42,24.62,24.78-4.5,42.35-27.1,42.72-51.85.14-9.34-14.38-9.35-14.52,0Z"></path><path class="cls-1" d="M443.28,319.71c-.27,51.03-32.47,98.41-80.74,115.96-49.08,17.85-104.65,2.77-138.1-37.26-33.21-39.73-37.22-98.16-10.62-142.38,26.53-44.11,79.44-67.74,130.01-57.55,50.34,10.14,89.67,51.18,97.98,101.8,1.05,6.42,1.44,12.93,1.48,19.42.05,9.34,14.57,9.36,14.52,0-.3-57.62-36.7-109.74-90.77-129.73s-117.22-2.75-153.68,41.77c-36.78,44.91-42.02,109.72-11.71,159.53,30.04,49.37,88.78,74.91,145.4,63.79,55.53-10.91,100.4-57.44,109-113.42,1.12-7.27,1.74-14.58,1.78-21.93.05-9.34-14.47-9.35-14.52,0Z"></path><rect class="cls-1" x="269.37" y="203.01" width="18.35" height="81.88" transform="translate(-86.13 179.82) rotate(-31.24)"></rect><rect class="cls-1" x="360.98" y="354.04" width="18.35" height="81.88" transform="translate(-151.17 249.22) rotate(-31.24)"></rect><rect class="cls-1" x="261.36" y="353.11" width="18.35" height="81.88" transform="translate(266.97 872.02) rotate(-145.1)"></rect><rect class="cls-1" x="361.62" y="209.38" width="18.35" height="81.88" transform="translate(531.7 667.77) rotate(-145.1)"></rect><rect class="cls-1" x="217.75" y="277.15" width="18.35" height="81.88" transform="translate(-91.17 545.02) rotate(-90)"></rect><rect class="cls-1" x="397.08" y="277.15" width="18.35" height="81.88" transform="translate(88.15 724.34) rotate(-90)"></rect><path class="cls-2" d="M263.36,477.8c-52.95-20.22-92.33-71.71-101.54-127.15-1.45-8.75-14.77-5.04-13.32,3.67,10.05,60.45,53.92,114.93,111.19,136.8,8.31,3.17,11.91-10.18,3.67-13.32h0Z"></path><path class="cls-2" d="M363.47,162.86c54.96,13.55,100.93,59.02,116.94,113.1,2.52,8.51,15.86,4.89,13.32-3.67-17.33-58.56-66.99-108.06-126.59-122.75-8.63-2.13-12.32,11.19-3.67,13.32h0Z"></path></svg>