<svg xmlns="http://www.w3.org/2000/svg" id="Layer_1" data-name="Layer 1" viewBox="0 0 639.43 639.2"><defs><style>      .cls-1 {        fill: #3c3996;      }      .cls-2 {        fill: #44ca7b;      }    </style></defs><path class="cls-1" d="M203.54,445.68c-.23,22.56-14.23,44.06-35.66,51.87-22.63,8.25-47.58,1.62-62.99-16.96-14.65-17.67-16.17-43.82-4.39-63.47,11.69-19.51,35.36-30.47,57.74-26.01,26.24,5.23,45.03,27.93,45.3,54.57.14,13.52,21.16,13.55,21.02,0-.33-32.15-20.37-60.67-50.47-71.91-29.36-10.96-64.57-1.61-84.48,22.63-20.44,24.9-24.01,60.54-7.26,88.45,16.65,27.75,49.18,41.8,80.82,35.81,35.55-6.74,61.03-39.28,61.4-74.98.14-13.53-20.88-13.54-21.02,0Z"></path><circle class="cls-1" cx="148.06" cy="445.68" r="15.28"></circle><path class="cls-1" d="M496.61,445.68c-.23,22.56-14.23,44.06-35.66,51.87-22.63,8.25-47.58,1.62-62.99-16.96-14.65-17.67-16.17-43.82-4.39-63.47,11.69-19.51,35.36-30.47,57.74-26.01,26.24,5.23,45.03,27.93,45.3,54.57.14,13.52,21.16,13.55,21.02,0-.33-32.15-20.37-60.67-50.47-71.91-29.36-10.96-64.57-1.61-84.48,22.63-20.44,24.9-24.01,60.54-7.26,88.45,16.65,27.75,49.18,41.8,80.82,35.81,35.55-6.74,61.03-39.28,61.4-74.98.14-13.53-20.88-13.54-21.02,0Z"></path><circle class="cls-1" cx="441.13" cy="445.68" r="15.28"></circle><rect class="cls-1" x="217.06" y="433.42" width="123.93" height="18.66"></rect><rect class="cls-2" x="564.88" y="277.56" width="38.55" height="13.89" rx="4.49" ry="4.49" transform="translate(-44.1 118.74) rotate(-11.19)"></rect><rect class="cls-2" x="547.59" y="246.3" width="38.55" height="13.89" rx="4.49" ry="4.49" transform="translate(-41.49 377.24) rotate(-35.59)"></rect><rect class="cls-2" x="562.07" y="312.19" width="38.55" height="13.89" rx="4.49" ry="4.49" transform="translate(99.21 -136.23) rotate(14.6)"></rect><rect class="cls-2" x="74.35" y="335.07" width="51.8" height="18.66" rx="6.03" ry="6.03"></rect><path class="cls-1" d="M73.38,430.79c-1.17.13-2.35.14-3.52.14-1.23,0-2.46-.11-3.69-.18-2.46-.13.9.22.51.11-.91-.25-1.92-.32-2.86-.52-1.61-.35-3.15-.85-4.71-1.35-2.93-.94.97.76-.61-.25-.96-.62-2.05-1.11-3.04-1.71-1.07-.64-2.14-1.83-.52-.29-.81-.77-1.63-1.52-2.43-2.3-.31-.3-.56-.66-.86-.97-1.11-1.19,1.08,1.71.23.28-.72-1.21-1.43-2.43-2.14-3.65-.92-1.58.24,1.18-.53-1.45-.37-1.25-.74-2.5-1.01-3.78-.16-.77-.32-1.57-.43-2.35.08.6.14,1.82,0-.65-.09-1.5-.14-3-.15-4.5-.02-2.36,0-4.72,0-7.09v-20.05c0-41.75,0-83.49,0-125.24,0-31.35,0-62.71,0-94.06,0-.95.12-1.99,0-2.93-.11-.84-1.3,4.58.01,1.29.47-1.17,2.17-4.39.25-.96.9-1.6,1.55-3.34,2.46-4.94.96-1.68,2.03-3.3,3.18-4.85-1.7,2.29.53-.52,1.08-1.1.88-.94,1.87-1.76,2.76-2.68,1.44-1.48.38-.36-.06-.04.55-.41,1.11-.8,1.69-1.18,1.04-.68,2.12-1.28,3.22-1.86.26-.14,2.33-1.05,1.1-.55s.99-.32,1.26-.4c1.55-.46,3.09-.89,4.69-1.16,2.05-.34-1.47.1.7-.07.91-.07,1.81-.11,2.72-.13.52-.01,1.03,0,1.55-.01.91,0,1.81,0,2.72,0h16.03c38.56,0,77.12,0,115.68,0,35.35,0,70.69,0,106.04,0,3.52,0,7.04-.04,10.55,0,.48,0,1,.05,1.48,0,2.09-.2-4.03-.95-1.29-.16,1.81.52,3.59,1.01,5.37,1.63.94.32,3.1,1.59-.19-.12.68.36,1.42.62,2.11.95,1.92.9,3.81,1.87,5.68,2.88,11.84,6.46,22.76,14.6,33.14,23.17,36.79,30.34,71.91,62.84,107.33,94.76,10.98,9.9,21.96,19.81,32.9,29.76.5.45,1.01.89,1.49,1.36.67.66,1.28,1.37,1.91,2.06,1.6,1.76-.1-.25.21.18.82,1.15,1.64,2.29,2.39,3.49,3.15,5.02,5.09,9.47,5.73,15.39.42,3.83.18,7.81.18,11.66,0,20.96,0,41.92,0,62.88,0,9.32,0,18.65,0,27.97v8.37c0,.63-.12,1.41,0,2.03.37,1.89.59-3.32.34-2.36-.4,1.51,1.15-2.08.69-1.59-.37.38-.64,1.26-.9,1.72-.37.63-.81,1.22-1.2,1.83,1.42-2.18.3-.55-.66.46-.29.31-.64.57-.96.86-1.19,1.08,1.69-.99.18-.2-1.05.55-2.02,1.25-3.12,1.72,1.88-.8-2.25.52-2.77.62-1.48.29-1.7.23-3.91.27-15.2.3-15.25,23.95,0,23.65,13.31-.26,26.68-5.81,33.27-17.98,2.55-4.72,2.71-8.78,2.71-13.9v-92.51c0-11.21.12-22.23-4.2-32.83-5.07-12.42-12.97-20.36-22.52-29-34.95-31.66-69.98-63.26-105.48-94.31-19.75-17.27-39.51-35.44-62.35-48.56-8.1-4.65-17.28-9.5-26.84-9.77-28.39-.8-56.91,0-85.31,0-42.99,0-85.98,0-128.97,0-12.38,0-24.76-.05-37.14,0-23.35.09-42.69,14.95-49.65,37.12-2.05,6.53-.91,14.52-.91,21.23v51.48c0,44.77,0,89.54,0,134.3v45.03c0,12.44,2.13,24.39,10.13,34.28,6.08,7.51,15.27,12.48,24.72,14.24,4.69.88,9.76,1.56,14.55,1.04,6.35-.7,11.83-4.94,11.83-11.83,0-5.85-5.44-12.53-11.83-11.83h0Z"></path><path class="cls-1" d="M179.53,269.5c2.79,18.85,20.99,33.1,37.41,39.66,15.18,6.06,31.54,6.59,47.66,6.59h35.05c59.94,0,119.89,0,179.83,0h46.4c15.22,0,15.24-23.65,0-23.65h-118.48c-30.56,0-61.12,0-91.69,0-12.79,0-25.57,0-38.36,0-11.9,0-25,.72-36.2-.91-3.8-.55-9.02-1.75-13.25-3.13-.71-.23-1.43-.48-2.13-.73-.68-.25-1.37-.51-2.04-.77,1.03.45,1.16.51.4.17-1.66-.74-3.29-1.55-4.88-2.44s-3.11-1.88-4.62-2.89c-.48-.32-.92-.67-1.39-1,2.64,1.9-.25-.27-.76-.72-2-1.78-3.73-3.75-5.48-5.77,2.49,2.88-.17-.35-.71-1.18-.51-.79-.99-1.6-1.44-2.42-.47-.87-.82-1.86-1.35-2.69-1-1.58.87,2.65.58,1.39-.1-.44-.36-.88-.5-1.31-.48-1.46-1.01-2.93-1.23-4.46-.94-6.32-8.93-9.8-14.55-8.26-6.78,1.86-9.2,8.2-8.26,14.55h0Z"></path></svg>